<svg xmlns="http://www.w3.org/2000/svg" viewBox="0 0 100 100">
  <defs>
    <style>
      .border { fill: #ED1C24; }
      .symbol { fill: #000000; }
      .bg { fill: #FFFFFF; }
    </style>
  </defs>
  <polygon class="border" points="50,2 98,88 2,88"/>
  <polygon class="bg" points="50,8 92,82 8,82"/>
  <polygon class="border" points="50,14 86,76 14,76"/>
  <!-- Flame symbol -->
  <circle class="symbol" cx="50" cy="65" r="3"/>
  <path class="symbol" d="M50,65 L50,50 Q48,45 45,40 Q43,35 40,32 Q38,28 36,25"/>
  <path class="symbol" d="M50,50 Q52,45 55,40 Q57,35 60,32 Q62,28 64,25"/>
  <path class="symbol" d="M36,25 Q34,22 36,19 Q37,16 35,14"/>
  <path class="symbol" d="M64,25 Q66,22 64,19 Q63,16 65,14"/>
  <ellipse class="symbol" cx="50" cy="62" rx="12" ry="6" fill="none" stroke="#000" stroke-width="2"/>
</svg>